<?xml version="1.0" encoding="UTF-8" standalone="no"?><!-- Generator: Gravit.io --><svg xmlns="http://www.w3.org/2000/svg" xmlns:xlink="http://www.w3.org/1999/xlink" style="isolation:isolate" viewBox="0 0 1000 1000" width="1000pt" height="1000pt"><defs><clipPath id="_clipPath_S8Hm8NKDP4d5gyF3ropjWjZC5VOcSL9O"><rect width="1000" height="1000"/></clipPath></defs><g clip-path="url(#_clipPath_S8Hm8NKDP4d5gyF3ropjWjZC5VOcSL9O)"><rect width="1000" height="1000" style="fill:rgb(102,47,47)" fill-opacity="0"/><g style="isolation:isolate"><path d=" M 900.706 776.72 C 943.659 700.82 959.356 601.328 944.579 485.49 C 915.05 255.004 798.577 95.879 630.429 57.328 C 616.738 54.144 593.9 51.949 568.657 50.868 C 558.467 50.161 548.06 49.889 537.352 50.039 C 507.014 49.778 477.254 51.067 459 54.047 C 386.06 66.15 316.336 96.683 255.685 140.214 C 164.467 202.697 94.221 293.575 61.834 398.482 C 53.842 424.588 51.025 441.37 50.265 475.705 C 50.004 480.612 49.933 485.562 50.064 490.758 C 50.047 494.117 50.038 497.561 50.038 501.166 C 50.038 587.421 66.963 642.356 114.662 717.316 C 142.359 760.957 213.138 832.322 258.785 862.614 C 359.312 928.845 476.765 958.623 596.782 947.841 C 746.66 934.777 846.083 879.163 900.706 776.72 Z " fill="rgb(132,193,136)"/><path d=" M 321.931 501.178 L 321.931 501.178 L 322.52 469.662 L 322.52 468.484 L 322.52 468.484 Q 322.52 451.695 315.745 441.827 L 315.745 441.827 L 315.745 441.827 Q 308.971 431.96 295.422 431.96 L 295.422 431.96 L 295.422 431.96 Q 290.709 431.96 289.384 432.549 L 289.384 432.549 L 289.384 432.549 Q 288.058 433.138 286.585 435.789 L 286.585 435.789 L 265.967 477.32 L 265.378 477.32 L 249.767 437.262 L 249.767 437.262 Q 275.982 426.953 303.669 426.953 L 303.669 426.953 L 303.669 426.953 Q 332.535 426.953 344.905 439.029 L 344.905 439.029 L 344.905 439.029 Q 358.749 453.462 358.749 486.451 L 358.749 486.451 L 358.749 491.753 L 356.982 538.585 L 356.982 538.585 Q 356.098 557.142 366.702 557.142 L 366.702 557.142 L 366.702 557.142 Q 373.182 557.142 375.538 550.073 L 375.538 550.073 L 376.127 550.073 L 376.127 550.073 Q 376.422 554.785 374.065 560.087 L 374.065 560.087 L 374.065 560.087 Q 371.12 567.156 364.493 571.575 L 364.493 571.575 L 364.493 571.575 Q 357.865 575.993 348.735 575.993 L 348.735 575.993 L 348.735 575.993 Q 336.953 575.993 329.442 568.335 L 329.442 568.335 L 329.442 568.335 Q 321.931 560.676 321.636 545.949 L 321.636 545.949 L 321.636 545.949 Q 317.218 559.793 306.467 567.893 L 306.467 567.893 L 306.467 567.893 Q 295.716 575.993 281.578 575.993 L 281.578 575.993 L 281.578 575.993 Q 265.084 575.993 253.744 565.389 L 253.744 565.389 L 253.744 565.389 Q 242.404 554.785 242.404 536.229 L 242.404 536.229 L 242.404 536.229 Q 242.404 515.611 256.984 503.976 L 256.984 503.976 L 256.984 503.976 Q 271.564 492.342 291.004 492.342 L 291.004 492.342 L 291.004 492.342 Q 310.149 492.342 321.931 501.178 Z  M 307.498 500.884 L 307.498 500.884 L 307.498 500.884 Q 294.244 500.884 286.585 509.72 L 286.585 509.72 L 286.585 509.72 Q 278.927 518.556 278.927 531.811 L 278.927 531.811 L 278.927 531.811 Q 278.927 543.593 284.671 550.367 L 284.671 550.367 L 284.671 550.367 Q 290.415 557.142 299.251 557.142 L 299.251 557.142 L 299.251 557.142 Q 312.8 557.142 321.342 543.298 L 321.342 543.298 L 321.931 503.24 L 321.931 503.24 Q 315.745 500.884 307.498 500.884 Z  M 373.771 366.571 L 431.502 359.796 L 431.502 458.764 L 431.502 458.764 Q 445.935 426.953 476.273 426.953 L 476.273 426.953 L 476.273 426.953 Q 500.72 426.953 514.858 446.54 L 514.858 446.54 L 514.858 446.54 Q 528.996 466.127 528.996 498.822 L 528.996 498.822 L 528.996 498.822 Q 528.996 532.695 512.355 554.344 L 512.355 554.344 L 512.355 554.344 Q 495.713 575.993 467.731 575.993 L 467.731 575.993 L 467.731 575.993 Q 441.811 575.993 430.913 558.615 L 430.913 558.615 L 394.978 575.993 L 394.389 575.993 L 394.389 386.6 L 394.389 386.6 Q 394.389 382.182 391.149 379.825 L 391.149 379.825 L 373.771 367.16 L 373.771 366.571 L 373.771 366.571 Z  M 458.6 445.509 L 458.6 445.509 L 458.6 445.509 Q 442.695 445.509 431.502 462.004 L 431.502 462.004 L 431.502 555.375 L 431.502 555.375 Q 439.455 564.211 453.298 564.211 L 453.298 564.211 L 453.298 564.211 Q 489.527 564.211 489.527 501.767 L 489.527 501.767 L 489.527 501.767 Q 489.527 473.785 481.28 459.647 L 481.28 459.647 L 481.28 459.647 Q 473.033 445.509 458.6 445.509 Z  M 538.422 366.571 L 595.858 359.796 L 595.858 553.902 L 595.858 553.902 Q 595.858 557.731 599.098 560.382 L 599.098 560.382 L 616.476 573.047 L 616.476 573.636 L 538.422 573.636 L 538.422 573.047 L 555.8 560.382 L 555.8 560.382 Q 558.745 558.025 558.745 553.902 L 558.745 553.902 L 558.745 386.6 L 558.745 386.6 Q 558.745 382.182 555.8 379.825 L 555.8 379.825 L 538.422 367.16 L 538.422 366.571 L 538.422 366.571 Z  M 706.313 501.178 L 706.313 501.178 L 706.902 469.662 L 706.902 468.484 L 706.902 468.484 Q 706.902 451.695 700.127 441.827 L 700.127 441.827 L 700.127 441.827 Q 693.353 431.96 679.804 431.96 L 679.804 431.96 L 679.804 431.96 Q 675.091 431.96 673.765 432.549 L 673.765 432.549 L 673.765 432.549 Q 672.44 433.138 670.967 435.789 L 670.967 435.789 L 650.349 477.32 L 649.76 477.32 L 634.149 437.262 L 634.149 437.262 Q 660.364 426.953 688.051 426.953 L 688.051 426.953 L 688.051 426.953 Q 716.916 426.953 729.287 439.029 L 729.287 439.029 L 729.287 439.029 Q 743.131 453.462 743.131 486.451 L 743.131 486.451 L 743.131 491.753 L 741.364 538.585 L 741.364 538.585 Q 740.48 557.142 751.084 557.142 L 751.084 557.142 L 751.084 557.142 Q 757.564 557.142 759.92 550.073 L 759.92 550.073 L 760.509 550.073 L 760.509 550.073 Q 760.804 554.785 758.447 560.087 L 758.447 560.087 L 758.447 560.087 Q 755.502 567.156 748.875 571.575 L 748.875 571.575 L 748.875 571.575 Q 742.247 575.993 733.116 575.993 L 733.116 575.993 L 733.116 575.993 Q 721.335 575.993 713.824 568.335 L 713.824 568.335 L 713.824 568.335 Q 706.313 560.676 706.018 545.949 L 706.018 545.949 L 706.018 545.949 Q 701.6 559.793 690.849 567.893 L 690.849 567.893 L 690.849 567.893 Q 680.098 575.993 665.96 575.993 L 665.96 575.993 L 665.96 575.993 Q 649.465 575.993 638.125 565.389 L 638.125 565.389 L 638.125 565.389 Q 626.785 554.785 626.785 536.229 L 626.785 536.229 L 626.785 536.229 Q 626.785 515.611 641.365 503.976 L 641.365 503.976 L 641.365 503.976 Q 655.945 492.342 675.385 492.342 L 675.385 492.342 L 675.385 492.342 Q 694.531 492.342 706.313 501.178 Z  M 691.88 500.884 L 691.88 500.884 L 691.88 500.884 Q 678.625 500.884 670.967 509.72 L 670.967 509.72 L 670.967 509.72 Q 663.309 518.556 663.309 531.811 L 663.309 531.811 L 663.309 531.811 Q 663.309 543.593 669.053 550.367 L 669.053 550.367 L 669.053 550.367 Q 674.796 557.142 683.633 557.142 L 683.633 557.142 L 683.633 557.142 Q 697.182 557.142 705.724 543.298 L 705.724 543.298 L 706.313 503.24 L 706.313 503.24 Q 700.127 500.884 691.88 500.884 Z " fill="rgb(255,255,255)"/></g></g></svg>