<svg xmlns="http://www.w3.org/2000/svg" style="isolation:isolate" viewBox="0 0 169 169" width="169pt" height="169pt"><defs><clipPath id="a"><path d="M0 0h169v169H0z"/></clipPath></defs><g style="isolation:isolate" clip-path="url(#a)"><path d="M159.744 136.462c8.066-14.252 11.014-32.934 8.239-54.686-5.545-43.28-27.416-73.16-58.991-80.4-2.571-.597-6.859-1.01-11.599-1.212a70.515 70.515 0 0 0-5.878-.156C85.818-.041 80.23.201 76.802.76 63.105 3.033 50.013 8.767 38.624 16.941 21.495 28.674 8.304 45.738 2.223 65.438.722 70.34.193 73.491.051 79.938c-.05.922-.063 1.851-.038 2.827-.003.631-.005 1.277-.005 1.954 0 16.197 3.178 26.513 12.135 40.589 5.201 8.194 18.491 21.595 27.063 27.283 18.877 12.437 40.932 18.029 63.468 16.004 28.144-2.453 46.813-12.896 57.07-32.133Z" fill="#84C188"/><path d="M87.272 117.373v8.234q0 2.182.862 2.182.825 0 1.21-.559t.385-2.026h1.925q.019.238.019.751 0 1.651-.825 2.861-1.009 1.54-3.21 1.54-1.43 0-2.438-.806-1.009-.807-1.394-2.128-2.659 2.934-6.73 2.934-2.237 0-3.897-1.311-1.659-1.311-1.659-3.658 0-4.071 6.014-6.015 3.815-1.21 4.566-1.678.752-.467.982-.953.229-.486.229-1.091 0-1.082-1.064-1.807-1.063-.724-2.769-.724-1.705 0-3.007.917.917.678.917 1.742t-.706 1.705q-.706.642-1.706.642-.999 0-1.65-.605-.651-.605-.651-1.687 0-2.145 2.164-3.475 2.164-1.329 5.263-1.329 5.538 0 6.766 3.594.404 1.192.404 2.75Zm-8.087 3.668q-1.614.697-2.421 1.788-.807 1.091-.807 2.375 0 1.283.697 1.943.697.661 1.742.661 2.127 0 3.521-1.495 1.394-1.494 1.394-4.172v-2.824q-1.174.605-2.485 1.1-1.311.496-1.641.624Zm19.053 6.803q-.789.752-.789 2.146h-2.714v-23.674q0-1.321-.229-1.724t-1.256-.403h-1.302v-2.018q1.779 0 2.796-.265 1.018-.266 1.449-.386.431-.119.926-.119.972 0 1.275.56.302.559.302 1.787v9.829q1.962-2.548 5.621-2.548 3.658 0 5.813 2.338 2.154 2.338 2.154 6.885 0 4.548-2.246 7.326-2.246 2.778-6.281 2.778-3.319 0-5.519-2.512Zm.366-6.931q0 3.355 1.275 5.299 1.274 1.944 3.457 1.944 2.163 0 3.42-1.999 1.256-1.999 1.256-5.299 0-5.263-2.494-7.005-.899-.606-2.118-.606-1.22 0-2.1.587-.88.587-1.467 1.614-1.229 2.109-1.229 5.465Zm16.559 9.077v-2.017q1.596 0 2.192-.441.596-.44.596-1.522v-19.859q0-1.321-.23-1.724-.229-.403-1.256-.403h-1.485v-2.018q1.852 0 2.897-.266 1.046-.265 1.495-.385.449-.119.944-.119.954 0 1.275.55.321.55.321 1.797v22.427q0 1.137.486 1.55.486.413 2.264.413v2.017h-9.499Zm28.332-12.617v8.234q0 2.182.862 2.182.825 0 1.21-.559t.385-2.026h1.926q.018.238.018.751 0 1.651-.825 2.861-1.009 1.54-3.209 1.54-1.43 0-2.439-.806-1.009-.807-1.394-2.128-2.659 2.934-6.73 2.934-2.237 0-3.896-1.311-1.66-1.311-1.66-3.658 0-4.071 6.015-6.015 3.814-1.21 4.566-1.678.752-.467.981-.953.229-.486.229-1.091 0-1.082-1.063-1.807-1.064-.724-2.769-.724-1.706 0-3.008.917.917.678.917 1.742t-.706 1.705q-.706.642-1.705.642-1 0-1.651-.605t-.651-1.687q0-2.145 2.164-3.475 2.164-1.329 5.263-1.329 5.538 0 6.767 3.594.403 1.192.403 2.75Zm-8.087 3.668q-1.613.697-2.42 1.788-.807 1.091-.807 2.375 0 1.283.697 1.943.696.661 1.742.661 2.127 0 3.521-1.495 1.393-1.494 1.393-4.172v-2.824q-1.173.605-2.485 1.1-1.311.496-1.641.624Z" fill="#FFF"/></g></svg>