<?xml version="1.0" encoding="UTF-8" standalone="no"?><!-- Generator: Gravit.io --><svg xmlns="http://www.w3.org/2000/svg" xmlns:xlink="http://www.w3.org/1999/xlink" style="isolation:isolate" viewBox="0 0 80 80" width="80pt" height="80pt"><defs><clipPath id="_clipPath_7rBPQx9qzLhEUhjutXpBhPdpAdZuj1Qd"><rect width="80" height="80"/></clipPath></defs><g clip-path="url(#_clipPath_7rBPQx9qzLhEUhjutXpBhPdpAdZuj1Qd)"><rect width="80" height="80" style="fill:rgb(102,47,47)" fill-opacity="0"/><g style="isolation:isolate"><path d=" M 75.618 64.597 C 79.436 57.851 80.832 49.007 79.518 38.71 C 76.893 18.223 66.54 4.078 51.594 0.651 C 50.377 0.368 48.347 0.173 46.103 0.077 C 45.197 0.014 44.272 -0.01 43.32 0.003 C 40.623 -0.02 37.978 0.095 36.355 0.36 C 29.872 1.436 23.674 4.15 18.283 8.019 C 10.175 13.573 3.931 21.651 1.052 30.976 C 0.342 33.297 0.091 34.788 0.024 37.84 C 0 38.277 -0.006 38.717 0.006 39.178 C 0.004 39.477 0.003 39.783 0.003 40.104 C 0.003 47.771 1.508 52.654 5.748 59.317 C 8.21 63.196 14.501 69.54 18.559 72.232 C 27.494 78.119 37.935 80.766 48.603 79.808 C 61.925 78.647 70.763 73.703 75.618 64.597 Z " fill="rgb(132,193,136)"/><path d=" M 24.041 42.958 L 24.041 42.958 L 24.093 40.157 L 24.093 40.052 L 24.093 40.052 Q 24.093 38.56 23.491 37.683 L 23.491 37.683 L 23.491 37.683 Q 22.889 36.806 21.684 36.806 L 21.684 36.806 L 21.684 36.806 Q 21.265 36.806 21.148 36.858 L 21.148 36.858 L 21.148 36.858 Q 21.03 36.91 20.899 37.146 L 20.899 37.146 L 19.066 40.838 L 19.014 40.838 L 17.626 37.277 L 17.626 37.277 Q 19.956 36.361 22.417 36.361 L 22.417 36.361 L 22.417 36.361 Q 24.983 36.361 26.083 37.434 L 26.083 37.434 L 26.083 37.434 Q 27.313 38.717 27.313 41.649 L 27.313 41.649 L 27.313 42.121 L 27.156 46.284 L 27.156 46.284 Q 27.078 47.933 28.02 47.933 L 28.02 47.933 L 28.02 47.933 Q 28.596 47.933 28.806 47.305 L 28.806 47.305 L 28.858 47.305 L 28.858 47.305 Q 28.884 47.724 28.675 48.195 L 28.675 48.195 L 28.675 48.195 Q 28.413 48.823 27.824 49.216 L 27.824 49.216 L 27.824 49.216 Q 27.235 49.609 26.423 49.609 L 26.423 49.609 L 26.423 49.609 Q 25.376 49.609 24.708 48.928 L 24.708 48.928 L 24.708 48.928 Q 24.041 48.247 24.015 46.938 L 24.015 46.938 L 24.015 46.938 Q 23.622 48.169 22.666 48.889 L 22.666 48.889 L 22.666 48.889 Q 21.711 49.609 20.454 49.609 L 20.454 49.609 L 20.454 49.609 Q 18.988 49.609 17.98 48.666 L 17.98 48.666 L 17.98 48.666 Q 16.972 47.724 16.972 46.074 L 16.972 46.074 L 16.972 46.074 Q 16.972 44.241 18.268 43.207 L 18.268 43.207 L 18.268 43.207 Q 19.564 42.173 21.292 42.173 L 21.292 42.173 L 21.292 42.173 Q 22.993 42.173 24.041 42.958 Z  M 22.758 42.932 L 22.758 42.932 L 22.758 42.932 Q 21.58 42.932 20.899 43.718 L 20.899 43.718 L 20.899 43.718 Q 20.218 44.503 20.218 45.681 L 20.218 45.681 L 20.218 45.681 Q 20.218 46.729 20.729 47.331 L 20.729 47.331 L 20.729 47.331 Q 21.239 47.933 22.025 47.933 L 22.025 47.933 L 22.025 47.933 Q 23.229 47.933 23.988 46.702 L 23.988 46.702 L 24.041 43.142 L 24.041 43.142 Q 23.491 42.932 22.758 42.932 Z  M 28.649 30.993 L 33.78 30.391 L 33.78 39.188 L 33.78 39.188 Q 35.063 36.361 37.76 36.361 L 37.76 36.361 L 37.76 36.361 Q 39.933 36.361 41.19 38.102 L 41.19 38.102 L 41.19 38.102 Q 42.446 39.843 42.446 42.749 L 42.446 42.749 L 42.446 42.749 Q 42.446 45.76 40.967 47.684 L 40.967 47.684 L 40.967 47.684 Q 39.488 49.609 37.001 49.609 L 37.001 49.609 L 37.001 49.609 Q 34.697 49.609 33.728 48.064 L 33.728 48.064 L 30.534 49.609 L 30.481 49.609 L 30.481 32.774 L 30.481 32.774 Q 30.481 32.381 30.193 32.172 L 30.193 32.172 L 28.649 31.046 L 28.649 30.993 Z  M 36.189 38.01 L 36.189 38.01 L 36.189 38.01 Q 34.775 38.01 33.78 39.476 L 33.78 39.476 L 33.78 47.776 L 33.78 47.776 Q 34.487 48.561 35.718 48.561 L 35.718 48.561 L 35.718 48.561 Q 38.938 48.561 38.938 43.011 L 38.938 43.011 L 38.938 43.011 Q 38.938 40.524 38.205 39.267 L 38.205 39.267 L 38.205 39.267 Q 37.472 38.01 36.189 38.01 Z  M 43.284 30.993 L 48.39 30.391 L 48.39 47.645 L 48.39 47.645 Q 48.39 47.985 48.678 48.221 L 48.678 48.221 L 50.222 49.347 L 50.222 49.399 L 43.284 49.399 L 43.284 49.347 L 44.829 48.221 L 44.829 48.221 Q 45.091 48.012 45.091 47.645 L 45.091 47.645 L 45.091 32.774 L 45.091 32.774 Q 45.091 32.381 44.829 32.172 L 44.829 32.172 L 43.284 31.046 L 43.284 30.993 Z  M 58.208 42.958 L 58.208 42.958 L 58.26 40.157 L 58.26 40.052 L 58.26 40.052 Q 58.26 38.56 57.658 37.683 L 57.658 37.683 L 57.658 37.683 Q 57.056 36.806 55.852 36.806 L 55.852 36.806 L 55.852 36.806 Q 55.433 36.806 55.315 36.858 L 55.315 36.858 L 55.315 36.858 Q 55.197 36.91 55.066 37.146 L 55.066 37.146 L 53.233 40.838 L 53.181 40.838 L 51.793 37.277 L 51.793 37.277 Q 54.124 36.361 56.585 36.361 L 56.585 36.361 L 56.585 36.361 Q 59.15 36.361 60.25 37.434 L 60.25 37.434 L 60.25 37.434 Q 61.481 38.717 61.481 41.649 L 61.481 41.649 L 61.481 42.121 L 61.324 46.284 L 61.324 46.284 Q 61.245 47.933 62.188 47.933 L 62.188 47.933 L 62.188 47.933 Q 62.764 47.933 62.973 47.305 L 62.973 47.305 L 63.025 47.305 L 63.025 47.305 Q 63.052 47.724 62.842 48.195 L 62.842 48.195 L 62.842 48.195 Q 62.58 48.823 61.991 49.216 L 61.991 49.216 L 61.991 49.216 Q 61.402 49.609 60.59 49.609 L 60.59 49.609 L 60.59 49.609 Q 59.543 49.609 58.876 48.928 L 58.876 48.928 L 58.876 48.928 Q 58.208 48.247 58.182 46.938 L 58.182 46.938 L 58.182 46.938 Q 57.789 48.169 56.833 48.889 L 56.833 48.889 L 56.833 48.889 Q 55.878 49.609 54.621 49.609 L 54.621 49.609 L 54.621 49.609 Q 53.155 49.609 52.147 48.666 L 52.147 48.666 L 52.147 48.666 Q 51.139 47.724 51.139 46.074 L 51.139 46.074 L 51.139 46.074 Q 51.139 44.241 52.435 43.207 L 52.435 43.207 L 52.435 43.207 Q 53.731 42.173 55.459 42.173 L 55.459 42.173 L 55.459 42.173 Q 57.161 42.173 58.208 42.958 Z  M 56.925 42.932 L 56.925 42.932 L 56.925 42.932 Q 55.747 42.932 55.066 43.718 L 55.066 43.718 L 55.066 43.718 Q 54.385 44.503 54.385 45.681 L 54.385 45.681 L 54.385 45.681 Q 54.385 46.729 54.896 47.331 L 54.896 47.331 L 54.896 47.331 Q 55.406 47.933 56.192 47.933 L 56.192 47.933 L 56.192 47.933 Q 57.396 47.933 58.156 46.702 L 58.156 46.702 L 58.208 43.142 L 58.208 43.142 Q 57.658 42.932 56.925 42.932 Z " fill="rgb(255,255,255)"/></g></g></svg>