<?xml version="1.0" encoding="UTF-8" standalone="no"?><!-- Generator: Gravit.io --><svg xmlns="http://www.w3.org/2000/svg" xmlns:xlink="http://www.w3.org/1999/xlink" style="isolation:isolate" viewBox="0 0 1000 1000" width="1000pt" height="1000pt"><defs><clipPath id="_clipPath_OPbMkKB0mY2aUGE4hAX5xL0GiR3TkhTx"><rect width="1000" height="1000"/></clipPath></defs><g clip-path="url(#_clipPath_OPbMkKB0mY2aUGE4hAX5xL0GiR3TkhTx)"><rect width="1000" height="1000" style="fill:rgb(102,47,47)" fill-opacity="0"/><g style="isolation:isolate"><path d=" M 900.706 776.72 C 943.659 700.82 959.356 601.328 944.579 485.49 C 915.05 255.004 798.577 95.879 630.429 57.328 C 616.738 54.144 593.9 51.949 568.657 50.868 C 558.467 50.161 548.06 49.889 537.352 50.039 C 507.014 49.778 477.254 51.067 459 54.047 C 386.06 66.15 316.336 96.683 255.685 140.214 C 164.467 202.697 94.221 293.575 61.834 398.482 C 53.842 424.588 51.025 441.37 50.265 475.705 C 50.004 480.612 49.933 485.562 50.064 490.758 C 50.047 494.117 50.038 497.561 50.038 501.166 C 50.038 587.421 66.963 642.356 114.662 717.316 C 142.359 760.957 213.138 832.322 258.785 862.614 C 359.312 928.845 476.765 958.623 596.782 947.841 C 746.66 934.777 846.083 879.163 900.706 776.72 Z " fill="rgb(132,193,136)"/><g clip-path="url(#_clipPath_axOS5rzj5R0xCzfMJ5iS3KxHC4p5Eaqb)"><text transform="matrix(1.636,0,0,1.636,205.127,581.818)" style="font-family:'Noe Display Medium';font-weight:400;font-size:200px;font-style:normal;fill:#ffffff;stroke:none;">abla</text></g><defs><clipPath id="_clipPath_axOS5rzj5R0xCzfMJ5iS3KxHC4p5Eaqb"><rect x="0" y="0" width="369" height="156" transform="matrix(1.636,0,0,1.636,198.091,372.364)"/></clipPath></defs></g></g></svg>